# xmcd
#
# Track frame offsets:
#	150
#	17331
#	35707
#	60429
#	77424
#	92729
#	122404
#	154597
#
# Disc length: 2353 seconds
#
# Revision: 1
# Processed by: cddbd v1.5.1PL0 Copyright (c) Steve Scherf et al.
# Submitted via: audiograbber 1.83.01
#
DISCID=4d092f08
DTITLE=The Foy Brothers - whatever
DYEAR=2000
DGENRE=Blues
TTITLE0=Same Old Blues
TTITLE1=Cold Blue Steel
TTITLE2=Slow Road
TTITLE3=Garden Gate
TTITLE4=I Don't Understand
TTITLE5=Sometimes
TTITLE6=Tell Me What's Missing
TTITLE7=Whatever
EXTD=
EXTT0=
EXTT1=
EXTT2=
EXTT3=
EXTT4=
EXTT5=
EXTT6=
EXTT7=
PLAYORDER=
